# xmcd
#
# Track frame offsets: 
#        150
#        19640
#        39890
#        75430
#        92265
#        119705
#        139612
#        165575
#        188267
#        210942
#        246645
#        270820
#        301010
#
# Disc length: 4105 seconds
#
# Revision: 1
# Processed by: cddbd v1.5.2PL0 Copyright (c) Steve Scherf et al.
# Submitted via: ExactAudioCopyFreeDBPlugin 1.0
#
DISCID=8c10070d
DTITLE=Ronnie Earl - Ronnie Earl and Friends
DYEAR=2001
DGENRE=Blues
TTITLE0=All Your Love
TTITLE1=Rock Me Baby
TTITLE2=I'll Take Care of You - Lonely Avenue
TTITLE3=Mighty Fine Boogie
TTITLE4=One More Mile
TTITLE5=Bad Boy
TTITLE6=Twenty-five Days
TTITLE7=No More
TTITLE8=Last Night
TTITLE9=New Vietnam Blues
TTITLE10=Marie
TTITLE11=Blue and Lonesome
TTITLE12=Looking Good
EXTD=
EXTT0=
EXTT1=
EXTT2=
EXTT3=
EXTT4=
EXTT5=
EXTT6=
EXTT7=
EXTT8=
EXTT9=
EXTT10=
EXTT11=
EXTT12=
PLAYORDER=
